<?xml version="1.0" encoding="UTF-8"?>
<svg width="306px" height="38px" viewBox="0 0 306 38" version="1.1" xmlns="http://www.w3.org/2000/svg" xmlns:xlink="http://www.w3.org/1999/xlink">
    <!-- Generator: Sketch 50.2 (55047) - http://www.bohemiancoding.com/sketch -->
    <title>banner</title>
    <desc>Created with Sketch.</desc>
    <defs></defs>
    <g id="Page-1" stroke="none" stroke-width="1" fill="none" fill-rule="evenodd">
        <g id="banner" transform="translate(1.000000, 1.000000)">
            <g id="Group" stroke-linecap="round" stroke-linejoin="round">
                <polygon id="Shape" stroke="#000000" stroke-width="2" fill="#000000" points="0 7.2 0 36 12.7272727 28.8 27.2727273 36 40 28.8 40 0 27.2727273 7.2 12.7272727 0"></polygon>
                <g id="Share-2" transform="translate(14.000000, 12.000000)" stroke="#FFFFFF" stroke-width="1.33333333">
                    <path d="M11.4142,0.571142 C12.1952467,1.3326625 12.1952467,2.5673375 11.4142,3.328858 C10.6331533,4.0903785 9.36682,4.0903785 8.58577333,3.328858 C7.80472667,2.5673375 7.80472667,1.3326625 8.58577333,0.571142 C9.36682,-0.1903785 10.6331533,-0.1903785 11.4142,0.571142" id="Shape"></path>
                    <path d="M3.41421333,5.121142 C4.19526,5.8826625 4.19526,7.1173375 3.41421333,7.878858 C2.63316667,8.6403785 1.36683333,8.6403785 0.585786667,7.878858 C-0.19526,7.1173375 -0.19526,5.8826625 0.585786667,5.121142 C1.36683333,4.3596215 2.63316667,4.3596215 3.41421333,5.121142" id="Shape"></path>
                    <path d="M11.4142,9.671155 C12.1952467,10.4326755 12.1952467,11.6673505 11.4142,12.428871 C10.6331533,13.1903915 9.36682,13.1903915 8.58577333,12.428871 C7.80472667,11.6673505 7.80472667,10.4326755 8.58577333,9.671155 C9.36682,8.9096345 10.6331533,8.9096345 11.4142,9.671155" id="Shape"></path>
                    <path d="M3.72666667,7.4815 L8.28,10.0685" id="Shape"></path>
                    <path d="M8.27333333,2.9315 L3.72666667,5.5185" id="Shape"></path>
                </g>
            </g>
            <path d="M61.92,25 L61.92,12.28 L64.152,12.28 L64.152,13.648 L64.2,13.648 C64.4560013,13.1519975 64.8239976,12.7640014 65.304,12.484 C65.7840024,12.2039986 66.2879974,12.064 66.816,12.064 C67.2480022,12.064 67.6239984,12.1439992 67.944,12.304 L67.536,14.608 C67.2319985,14.4799994 66.9040018,14.416 66.552,14.416 C65.0159923,14.416 64.248,15.4559896 64.248,17.536 L64.248,25 L61.92,25 Z M79.104,20.944 L80.856,22.264 C80.3599975,23.1600045 79.6720044,23.8999971 78.792,24.484 C77.9119956,25.0680029 76.8400063,25.36 75.576,25.36 C73.8159912,25.36 72.3840055,24.7480061 71.28,23.524 C70.1759945,22.2999939 69.624,20.6720102 69.624,18.64 C69.624,16.6079898 70.1719945,14.9800061 71.268,13.756 C72.3640055,12.5319939 73.7599915,11.92 75.456,11.92 C77.1520085,11.92 78.5359946,12.523994 79.608,13.732 C80.6800054,14.940006 81.216,16.5759897 81.216,18.64 L81.216,19.336 L72,19.336 C72.0320002,20.4720057 72.347997,21.4119963 72.948,22.156 C73.548003,22.9000037 74.4079944,23.272 75.528,23.272 C76.0560026,23.272 76.523998,23.2000007 76.932,23.056 C77.340002,22.9119993 77.6919985,22.6920015 77.988,22.396 C78.2840015,22.0999985 78.4959994,21.8640009 78.624,21.688 C78.7520006,21.5119991 78.911999,21.2640016 79.104,20.944 Z M72.024,17.512 L78.888,17.512 C78.8399998,16.5359951 78.5360028,15.7080034 77.976,15.028 C77.4159972,14.3479966 76.5760056,14.008 75.456,14.008 C74.3839946,14.008 73.552003,14.3719964 72.96,15.1 C72.367997,15.8280036 72.0560002,16.6319956 72.024,17.512 Z M91.536,25 L91.536,23.656 L91.488,23.656 C91.3119991,24.0080018 90.9000032,24.379998 90.252,24.772 C89.6039968,25.164002 88.7680051,25.36 87.744,25.36 C86.2879927,25.36 85.1960036,25.0120035 84.468,24.316 C83.7399964,23.6199965 83.376,22.7440053 83.376,21.688 C83.376,20.6159946 83.6999968,19.784003 84.348,19.192 C84.9960032,18.599997 86.0959922,18.1120019 87.648,17.728 C89.0240069,17.3759982 89.9559976,17.0720013 90.444,16.816 C90.9320024,16.5599987 91.176,16.1840025 91.176,15.688 C91.176,15.1919975 90.9680021,14.7800016 90.552,14.452 C90.1359979,14.1239984 89.5120042,13.96 88.68,13.96 C87.0959921,13.96 86.1120019,14.759992 85.728,16.36 L83.688,15.64 C83.9120011,14.5359945 84.4479958,13.6400034 85.296,12.952 C86.1440042,12.2639966 87.2559931,11.92 88.632,11.92 C90.1200074,11.92 91.3159955,12.2999962 92.22,13.06 C93.1240045,13.8200038 93.576,14.999992 93.576,16.6 L93.576,25 L91.536,25 Z M88.176,19.432 C87.183995,19.7040014 86.5160017,19.9999984 86.172,20.32 C85.8279983,20.6400016 85.656,21.0479975 85.656,21.544 C85.656,22.7120058 86.4239923,23.296 87.96,23.296 C89.0320054,23.296 89.8559971,23.0640023 90.432,22.6 C91.0080029,22.1359977 91.296,21.5680034 91.296,20.896 L91.296,18.04 L91.248,18.04 C91.1839997,18.1840007 91.0880006,18.3079995 90.96,18.412 C90.8319994,18.5160005 90.5360023,18.6599991 90.072,18.844 C89.6079977,19.0280009 88.976004,19.223999 88.176,19.432 Z M105.24,20.032 L107.568,20.608 C107.343999,22.0800074 106.760005,23.2399958 105.816,24.088 C104.871995,24.9360042 103.648008,25.36 102.144,25.36 C100.431991,25.36 99.0360054,24.760006 97.956,23.56 C96.8759946,22.359994 96.336,20.7200104 96.336,18.64 C96.336,16.5439895 96.8959944,14.900006 98.016,13.708 C99.1360056,12.515994 100.519992,11.92 102.168,11.92 C103.624007,11.92 104.835995,12.3559956 105.804,13.228 C106.772005,14.1000044 107.335999,15.231993 107.496,16.624 L105.216,16.984 C105.087999,16.1359958 104.772003,15.4360028 104.268,14.884 C103.763997,14.3319972 103.064004,14.056 102.168,14.056 C101.095995,14.056 100.240003,14.455996 99.6,15.256 C98.9599968,16.056004 98.64,17.1839927 98.64,18.64 C98.64,20.0960073 98.9559968,21.227996 99.588,22.036 C100.220003,22.844004 101.087994,23.248 102.192,23.248 C103.088004,23.248 103.783998,22.944003 104.28,22.336 C104.776002,21.727997 105.095999,20.9600046 105.24,20.032 Z M111,21.016 L111,14.32 L109.128,14.32 L109.128,12.28 L111.048,12.28 L111.048,9.16 L113.28,9.16 L113.28,12.28 L116.448,12.28 L116.448,14.32 L113.304,14.32 L113.304,20.776 C113.304,21.4960036 113.411999,22.0039985 113.628,22.3 C113.844001,22.5960015 114.279997,22.744 114.936,22.744 L115.896,22.744 L115.896,25 L114.768,25 C113.391993,25 112.420003,24.6720033 111.852,24.016 C111.283997,23.3599967 111,22.3600067 111,21.016 Z M118.608,17.92 L118.608,15.928 L126.504,15.928 L126.504,17.92 L118.608,17.92 Z M129.624,25 L129.624,12.28 L131.904,12.28 L131.904,13.504 L131.952,13.504 C132.288002,13.0559978 132.775997,12.6800015 133.416,12.376 C134.056003,12.0719985 134.727996,11.92 135.432,11.92 C136.824007,11.92 137.935996,12.3439958 138.768,13.192 C139.600004,14.0400042 140.016,15.1999926 140.016,16.672 L140.016,25 L137.664,25 L137.664,17.344 C137.664,15.1679891 136.768009,14.08 134.976,14.08 C134.063995,14.08 133.332003,14.3399974 132.78,14.86 C132.227997,15.3800026 131.952,16.0959954 131.952,17.008 L131.952,25 L129.624,25 Z M151.056,25 L151.056,23.656 L151.008,23.656 C150.831999,24.0080018 150.420003,24.379998 149.772,24.772 C149.123997,25.164002 148.288005,25.36 147.264,25.36 C145.807993,25.36 144.716004,25.0120035 143.988,24.316 C143.259996,23.6199965 142.896,22.7440053 142.896,21.688 C142.896,20.6159946 143.219997,19.784003 143.868,19.192 C144.516003,18.599997 145.615992,18.1120019 147.168,17.728 C148.544007,17.3759982 149.475998,17.0720013 149.964,16.816 C150.452002,16.5599987 150.696,16.1840025 150.696,15.688 C150.696,15.1919975 150.488002,14.7800016 150.072,14.452 C149.655998,14.1239984 149.032004,13.96 148.2,13.96 C146.615992,13.96 145.632002,14.759992 145.248,16.36 L143.208,15.64 C143.432001,14.5359945 143.967996,13.6400034 144.816,12.952 C145.664004,12.2639966 146.775993,11.92 148.152,11.92 C149.640007,11.92 150.835995,12.2999962 151.74,13.06 C152.644005,13.8200038 153.096,14.999992 153.096,16.6 L153.096,25 L151.056,25 Z M147.696,19.432 C146.703995,19.7040014 146.036002,19.9999984 145.692,20.32 C145.347998,20.6400016 145.176,21.0479975 145.176,21.544 C145.176,22.7120058 145.943992,23.296 147.48,23.296 C148.552005,23.296 149.375997,23.0640023 149.952,22.6 C150.528003,22.1359977 150.816,21.5680034 150.816,20.896 L150.816,18.04 L150.768,18.04 C150.704,18.1840007 150.608001,18.3079995 150.48,18.412 C150.351999,18.5160005 150.056002,18.6599991 149.592,18.844 C149.127998,19.0280009 148.496004,19.223999 147.696,19.432 Z M157.248,21.016 L157.248,14.32 L155.376,14.32 L155.376,12.28 L157.296,12.28 L157.296,9.16 L159.528,9.16 L159.528,12.28 L162.696,12.28 L162.696,14.32 L159.552,14.32 L159.552,20.776 C159.552,21.4960036 159.659999,22.0039985 159.876,22.3 C160.092001,22.5960015 160.527997,22.744 161.184,22.744 L162.144,22.744 L162.144,25 L161.016,25 C159.639993,25 158.668003,24.6720033 158.1,24.016 C157.531997,23.3599967 157.248,22.3600067 157.248,21.016 Z M165.672,25 L165.672,12.28 L168,12.28 L168,25 L165.672,25 Z M165.576,9.952 L165.576,7.48 L168.096,7.48 L168.096,9.952 L165.576,9.952 Z M175.608,25 L170.496,12.28 L172.92,12.28 L176.592,21.712 L176.64,21.712 L180.264,12.28 L182.664,12.28 L177.552,25 L175.608,25 Z M193.704,20.944 L195.456,22.264 C194.959998,23.1600045 194.272004,23.8999971 193.392,24.484 C192.511996,25.0680029 191.440006,25.36 190.176,25.36 C188.415991,25.36 186.984006,24.7480061 185.88,23.524 C184.775994,22.2999939 184.224,20.6720102 184.224,18.64 C184.224,16.6079898 184.771995,14.9800061 185.868,13.756 C186.964005,12.5319939 188.359992,11.92 190.056,11.92 C191.752008,11.92 193.135995,12.523994 194.208,13.732 C195.280005,14.940006 195.816,16.5759897 195.816,18.64 L195.816,19.336 L186.6,19.336 C186.632,20.4720057 186.947997,21.4119963 187.548,22.156 C188.148003,22.9000037 189.007994,23.272 190.128,23.272 C190.656003,23.272 191.123998,23.2000007 191.532,23.056 C191.940002,22.9119993 192.291999,22.6920015 192.588,22.396 C192.884001,22.0999985 193.095999,21.8640009 193.224,21.688 C193.352001,21.5119991 193.511999,21.2640016 193.704,20.944 Z M186.624,17.512 L193.488,17.512 C193.44,16.5359951 193.136003,15.7080034 192.576,15.028 C192.015997,14.3479966 191.176006,14.008 190.056,14.008 C188.983995,14.008 188.152003,14.3719964 187.56,15.1 C186.967997,15.8280036 186.656,16.6319956 186.624,17.512 Z M198.096,17.92 L198.096,15.928 L205.992,15.928 L205.992,17.92 L198.096,17.92 Z M209.112,25 L209.112,12.28 L211.224,12.28 L211.224,13.504 L211.272,13.504 C211.576002,13.0399977 212.019997,12.6600015 212.604,12.364 C213.188003,12.0679985 213.807997,11.92 214.464,11.92 C215.216004,11.92 215.875997,12.0919983 216.444,12.436 C217.012003,12.7800017 217.447998,13.2079974 217.752,13.72 L217.8,13.72 C218.136002,13.2239975 218.615997,12.8000018 219.24,12.448 C219.864003,12.0959982 220.559996,11.92 221.328,11.92 C222.736007,11.92 223.847996,12.319996 224.664,13.12 C225.480004,13.920004 225.888,14.9919933 225.888,16.336 L225.888,25 L223.68,25 L223.68,16.936 C223.68,15.0319905 222.856008,14.08 221.208,14.08 C220.391996,14.08 219.760002,14.3199976 219.312,14.8 C218.863998,15.2800024 218.64,15.9359958 218.64,16.768 L218.64,25 L216.432,25 L216.432,16.936 C216.432,15.0319905 215.608008,14.08 213.96,14.08 C213.111996,14.08 212.472002,14.3319975 212.04,14.836 C211.607998,15.3400025 211.392,15.9839961 211.392,16.768 L211.392,25 L209.112,25 Z M236.928,25 L236.928,23.656 L236.88,23.656 C236.703999,24.0080018 236.292003,24.379998 235.644,24.772 C234.995997,25.164002 234.160005,25.36 233.136,25.36 C231.679993,25.36 230.588004,25.0120035 229.86,24.316 C229.131996,23.6199965 228.768,22.7440053 228.768,21.688 C228.768,20.6159946 229.091997,19.784003 229.74,19.192 C230.388003,18.599997 231.487992,18.1120019 233.04,17.728 C234.416007,17.3759982 235.347998,17.0720013 235.836,16.816 C236.324002,16.5599987 236.568,16.1840025 236.568,15.688 C236.568,15.1919975 236.360002,14.7800016 235.944,14.452 C235.527998,14.1239984 234.904004,13.96 234.072,13.96 C232.487992,13.96 231.504002,14.759992 231.12,16.36 L229.08,15.64 C229.304001,14.5359945 229.839996,13.6400034 230.688,12.952 C231.536004,12.2639966 232.647993,11.92 234.024,11.92 C235.512007,11.92 236.707995,12.2999962 237.612,13.06 C238.516005,13.8200038 238.968,14.999992 238.968,16.6 L238.968,25 L236.928,25 Z M233.568,19.432 C232.575995,19.7040014 231.908002,19.9999984 231.564,20.32 C231.219998,20.6400016 231.048,21.0479975 231.048,21.544 C231.048,22.7120058 231.815992,23.296 233.352,23.296 C234.424005,23.296 235.247997,23.0640023 235.824,22.6 C236.400003,22.1359977 236.688,21.5680034 236.688,20.896 L236.688,18.04 L236.64,18.04 C236.576,18.1840007 236.480001,18.3079995 236.352,18.412 C236.223999,18.5160005 235.928002,18.6599991 235.464,18.844 C234.999998,19.0280009 234.368004,19.223999 233.568,19.432 Z M244.896,16.984 L244.896,20.536 C244.896,21.2720037 245.187997,21.9079973 245.772,22.444 C246.356003,22.9800027 247.095996,23.248 247.992,23.248 C249.144006,23.248 250.043997,22.844004 250.692,22.036 C251.340003,21.227996 251.664,20.0960073 251.664,18.64 C251.664,17.1839927 251.340003,16.056004 250.692,15.256 C250.043997,14.455996 249.144006,14.056 247.992,14.056 C247.063995,14.056 246.316003,14.351997 245.748,14.944 C245.179997,15.536003 244.896,16.2159962 244.896,16.984 Z M242.568,30.4 L242.568,12.28 L244.8,12.28 L244.8,13.504 L244.848,13.504 C245.008001,13.295999 245.215999,13.088001 245.472,12.88 C245.728001,12.671999 246.127997,12.4600011 246.672,12.244 C247.216003,12.0279989 247.799997,11.92 248.424,11.92 C249.976008,11.92 251.291995,12.5319939 252.372,13.756 C253.452005,14.9800061 253.992,16.6079898 253.992,18.64 C253.992,20.7040103 253.472005,22.339994 252.432,23.548 C251.391995,24.756006 250.064008,25.36 248.448,25.36 C247.583996,25.36 246.848003,25.1840018 246.24,24.832 C245.631997,24.4799982 245.200001,24.1280018 244.944,23.776 L244.896,23.776 L244.896,30.4 L242.568,30.4 Z M256.272,17.92 L256.272,15.928 L264.168,15.928 L264.168,17.92 L256.272,17.92 Z M267.288,25 L267.288,7.48 L269.688,7.48 L269.688,25 L267.288,25 Z M273.624,25 L273.624,12.28 L275.952,12.28 L275.952,25 L273.624,25 Z M273.528,9.952 L273.528,7.48 L276.048,7.48 L276.048,9.952 L273.528,9.952 Z M279.888,25 L279.888,12.28 L282.168,12.28 L282.168,13.504 L282.216,13.504 C282.552002,13.0559978 283.039997,12.6800015 283.68,12.376 C284.320003,12.0719985 284.991996,11.92 285.696,11.92 C287.088007,11.92 288.199996,12.3439958 289.032,13.192 C289.864004,14.0400042 290.28,15.1999926 290.28,16.672 L290.28,25 L287.928,25 L287.928,17.344 C287.928,15.1679891 287.032009,14.08 285.24,14.08 C284.327995,14.08 283.596003,14.3399974 283.044,14.86 C282.491997,15.3800026 282.216,16.0959954 282.216,17.008 L282.216,25 L279.888,25 Z M294,25 L294,7.48 L296.328,7.48 L296.328,17.92 L296.376,17.92 L301.512,12.28 L304.536,12.28 L299.928,17.368 L305.064,25 L302.376,25 L298.176,18.76 L298.128,18.76 L296.328,20.704 L296.328,25 L294,25 Z" id="react-native-map-lin" fill="#000000"></path>
        </g>
    </g>
</svg>