<?xml version="1.0" encoding="UTF-8"?>
<svg width="260px" height="38px" viewBox="0 0 260 38" version="1.1" xmlns="http://www.w3.org/2000/svg" xmlns:xlink="http://www.w3.org/1999/xlink">
    <!-- Generator: Sketch 50.2 (55047) - http://www.bohemiancoding.com/sketch -->
    <title>banner</title>
    <desc>Created with Sketch.</desc>
    <defs></defs>
    <g id="Page-1" stroke="none" stroke-width="1" fill="none" fill-rule="evenodd">
        <g id="banner" transform="translate(1.000000, 1.000000)">
            <g id="Group" stroke-linecap="round" stroke-linejoin="round">
                <polygon id="Shape" stroke="#000000" stroke-width="2" fill="#000000" points="0 7.2 0 36 12.6785092 28.8 27.1682341 36 39.8467433 28.8 39.8467433 0 27.1682341 7.2 12.6785092 0"></polygon>
                <g id="Share-2" transform="translate(13.946360, 12.000000)" stroke="#FFFFFF" stroke-width="1.33333333">
                    <path d="M11.3704674,0.571142 C12.1485216,1.3326625 12.1485216,2.5673375 11.3704674,3.328858 C10.5924133,4.0903785 9.3309318,4.0903785 8.55287765,3.328858 C7.7748235,2.5673375 7.7748235,1.3326625 8.55287765,0.571142 C9.3309318,-0.1903785 10.5924133,-0.1903785 11.3704674,0.571142" id="Shape"></path>
                    <path d="M3.40113206,5.121142 C4.17918621,5.8826625 4.17918621,7.1173375 3.40113206,7.878858 C2.62307791,8.6403785 1.36159642,8.6403785 0.583542273,7.878858 C-0.194511877,7.1173375 -0.194511877,5.8826625 0.583542273,5.121142 C1.36159642,4.3596215 2.62307791,4.3596215 3.40113206,5.121142" id="Shape"></path>
                    <path d="M11.3704674,9.671155 C12.1485216,10.4326755 12.1485216,11.6673505 11.3704674,12.428871 C10.5924133,13.1903915 9.3309318,13.1903915 8.55287765,12.428871 C7.7748235,11.6673505 7.7748235,10.4326755 8.55287765,9.671155 C9.3309318,8.9096345 10.5924133,8.9096345 11.3704674,9.671155" id="Shape"></path>
                    <path d="M3.71238825,7.4815 L8.24827586,10.0685" id="Shape"></path>
                    <path d="M8.24163474,2.9315 L3.71238825,5.5185" id="Shape"></path>
                </g>
            </g>
            <path d="M57.4789272,23 L57.4789272,12.4 L59.0329502,12.4 L59.0329502,13.54 L59.0727969,13.54 C59.285314,13.1133312 59.5974437,12.7866678 60.0091954,12.56 C60.4209471,12.3333322 60.8393338,12.22 61.2643678,12.22 C61.4237556,12.22 61.5798204,12.2366665 61.732567,12.27 C61.8853137,12.3033335 62.0015322,12.3333332 62.0812261,12.36 L62.1808429,12.42 L61.8819923,14.04 C61.6827576,13.9333328 61.4038332,13.88 61.0452107,13.88 C60.3678127,13.88 59.8763745,14.1033311 59.5708812,14.55 C59.265388,14.9966689 59.1126437,15.7133284 59.1126437,16.7 L59.1126437,23 L57.4789272,23 Z M71.783908,19.74 L73.0988506,20.6 C72.7003811,21.3733372 72.1325707,22.0166641 71.3954023,22.53 C70.6582339,23.0433359 69.7517295,23.3 68.6758621,23.3 C67.2413721,23.3 66.065905,22.7900051 65.1494253,21.77 C64.2329456,20.7499949 63.7747126,19.3933418 63.7747126,17.7 C63.7747126,16.0066582 64.222984,14.6500051 65.1195402,13.63 C66.0160964,12.6099949 67.174961,12.1 68.5961686,12.1 C70.0040939,12.1 71.1463558,12.599995 72.0229885,13.6 C72.8996212,14.600005 73.337931,15.966658 73.337931,17.7 L73.337931,18.18 L65.4084291,18.18 C65.4217114,19.1933384 65.7039564,20.0533298 66.2551724,20.76 C66.8063885,21.4666702 67.5999948,21.82 68.6360153,21.82 C69.0344848,21.82 69.406384,21.7633339 69.7517241,21.65 C70.0970643,21.5366661 70.3627066,21.4233339 70.548659,21.31 C70.7346114,21.1966661 70.9305226,21.0100013 71.1363985,20.75 C71.3422743,20.4899987 71.4684544,20.3200004 71.5149425,20.24 C71.5614306,20.1599996 71.6510849,19.9933346 71.783908,19.74 Z M65.4482759,16.88 L71.7241379,16.88 C71.6975733,15.9866622 71.431931,15.2133366 70.9272031,14.56 C70.4224751,13.9066634 69.6454714,13.58 68.5961686,13.58 C67.5734304,13.58 66.7964267,13.9299965 66.2651341,14.63 C65.7338415,15.3300035 65.4615582,16.079996 65.4482759,16.88 Z M82.1639847,23 L82.1639847,21.84 L82.1241379,21.84 C81.9249032,22.1866684 81.5463629,22.5166651 80.9885057,22.83 C80.4306486,23.1433349 79.7333375,23.3 78.8965517,23.3 C77.7277081,23.3 76.8411269,23.0133362 76.2367816,22.44 C75.6324363,21.8666638 75.3302682,21.146671 75.3302682,20.28 C75.3302682,19.3999956 75.599231,18.7100025 76.1371648,18.21 C76.6750985,17.7099975 77.5882439,17.293335 78.8766284,16.96 C79.3547917,16.8399994 79.7100882,16.746667 79.9425287,16.68 C80.1749692,16.613333 80.4439321,16.5233339 80.7494253,16.41 C81.0549185,16.2966661 81.2740734,16.1866672 81.4068966,16.08 C81.5397197,15.9733328 81.6559382,15.8400008 81.7555556,15.68 C81.8551729,15.5199992 81.9049808,15.340001 81.9049808,15.14 C81.9049808,14.6866644 81.7223518,14.3100015 81.3570881,14.01 C80.9918245,13.7099985 80.4372962,13.56 79.6934866,13.56 C78.2855613,13.56 77.4288649,14.259993 77.1233716,15.66 L75.6490421,15.24 C75.8217122,14.306662 76.253381,13.5500029 76.9440613,12.97 C77.6347416,12.3899971 78.5312844,12.1 79.6337165,12.1 C80.8556894,12.1 81.8219632,12.4033303 82.532567,13.01 C83.2431709,13.6166697 83.5984674,14.5666602 83.5984674,15.86 L83.5984674,23 L82.1639847,23 Z M79.2551724,18.22 C78.351975,18.4733346 77.7376772,18.7466652 77.4122605,19.04 C77.0868438,19.3333348 76.9241379,19.713331 76.9241379,20.18 C76.9241379,21.2866722 77.621449,21.84 79.016092,21.84 C79.9724186,21.84 80.709576,21.6233355 81.2275862,21.19 C81.7455965,20.7566645 82.0045977,20.2266698 82.0045977,19.6 L82.0045977,16.96 L81.964751,16.96 C81.7787986,17.3466686 80.8756147,17.7666644 79.2551724,18.22 Z M93.7195402,18.94 L95.2934866,19.26 C95.1208165,20.4866728 94.6360193,21.466663 93.8390805,22.2 C93.0421416,22.933337 92.0592651,23.3 90.8904215,23.3 C89.4692138,23.3 88.3136698,22.8033383 87.4237548,21.81 C86.5338397,20.8166617 86.0888889,19.4466754 86.0888889,17.7 C86.0888889,15.9799914 86.5471219,14.6166717 87.4636015,13.61 C88.3800812,12.6033283 89.5223431,12.1 90.8904215,12.1 C92.0194182,12.1 92.979051,12.4599964 93.7693487,13.18 C94.5596464,13.9000036 95.041123,14.8333276 95.2137931,15.98 L93.6796935,16.3 C93.5203057,15.5133294 93.2148171,14.8633359 92.7632184,14.35 C92.3116197,13.8366641 91.6873603,13.58 90.8904215,13.58 C89.9340948,13.58 89.1637322,13.9433297 88.5793103,14.67 C87.9948885,15.3966703 87.702682,16.4066602 87.702682,17.7 C87.702682,18.9800064 87.9882475,19.986663 88.559387,20.72 C89.1305265,21.453337 89.9141713,21.82 90.9103448,21.82 C91.6940014,21.82 92.3315429,21.5366695 92.8229885,20.97 C93.3144341,20.4033305 93.6132817,19.7266706 93.7195402,18.94 Z M98.262069,19.92 L98.262069,13.86 L96.7877395,13.86 L96.7877395,12.4 L98.3019157,12.4 L98.3019157,9.8 L99.8559387,9.8 L99.8559387,12.4 L102.4659,12.4 L102.4659,13.86 L99.8758621,13.86 L99.8758621,19.72 C99.8758621,20.3466698 99.9621958,20.7866654 100.134866,21.04 C100.307536,21.2933346 100.652871,21.42 101.170881,21.42 L101.967816,21.42 L101.967816,23 L101.091188,23 C100.095014,23 99.3744594,22.7433359 98.9295019,22.23 C98.4845444,21.7166641 98.262069,20.9466718 98.262069,19.92 Z M104.458238,16.92 L104.458238,15.44 L111.013027,15.44 L111.013027,16.92 L104.458238,16.92 Z M113.802299,23 L113.802299,12.4 L115.396169,12.4 L115.396169,13.42 L115.436015,13.42 C115.728226,13.0333314 116.146613,12.7166679 116.691188,12.47 C117.235763,12.2233321 117.806894,12.1 118.404598,12.1 C119.546877,12.1 120.466663,12.4533298 121.163985,13.16 C121.861306,13.8666702 122.209962,14.8266606 122.209962,16.04 L122.209962,23 L120.596169,23 L120.596169,16.56 C120.596169,14.5866568 119.78596,13.6 118.165517,13.6 C117.342014,13.6 116.681229,13.833331 116.183142,14.3 C115.685055,14.766669 115.436015,15.4133292 115.436015,16.24 L115.436015,23 L113.802299,23 Z M131.633716,23 L131.633716,21.84 L131.59387,21.84 C131.394635,22.1866684 131.016095,22.5166651 130.458238,22.83 C129.90038,23.1433349 129.203069,23.3 128.366284,23.3 C127.19744,23.3 126.310859,23.0133362 125.706513,22.44 C125.102168,21.8666638 124.8,21.146671 124.8,20.28 C124.8,19.3999956 125.068963,18.7100025 125.606897,18.21 C126.14483,17.7099975 127.057976,17.293335 128.34636,16.96 C128.824523,16.8399994 129.17982,16.746667 129.412261,16.68 C129.644701,16.613333 129.913664,16.5233339 130.219157,16.41 C130.52465,16.2966661 130.743805,16.1866672 130.876628,16.08 C131.009451,15.9733328 131.12567,15.8400008 131.225287,15.68 C131.324905,15.5199992 131.374713,15.340001 131.374713,15.14 C131.374713,14.6866644 131.192084,14.3100015 130.82682,14.01 C130.461556,13.7099985 129.907028,13.56 129.163218,13.56 C127.755293,13.56 126.898597,14.259993 126.593103,15.66 L125.118774,15.24 C125.291444,14.306662 125.723113,13.5500029 126.413793,12.97 C127.104473,12.3899971 128.001016,12.1 129.103448,12.1 C130.325421,12.1 131.291695,12.4033303 132.002299,13.01 C132.712903,13.6166697 133.068199,14.5666602 133.068199,15.86 L133.068199,23 L131.633716,23 Z M128.724904,18.22 C127.821707,18.4733346 127.207409,18.7466652 126.881992,19.04 C126.556576,19.3333348 126.39387,19.713331 126.39387,20.18 C126.39387,21.2866722 127.091181,21.84 128.485824,21.84 C129.44215,21.84 130.179308,21.6233355 130.697318,21.19 C131.215328,20.7566645 131.47433,20.2266698 131.47433,19.6 L131.47433,16.96 L131.434483,16.96 C131.24853,17.3466686 130.345347,17.7666644 128.724904,18.22 Z M136.634483,19.92 L136.634483,13.86 L135.160153,13.86 L135.160153,12.4 L136.67433,12.4 L136.67433,9.8 L138.228352,9.8 L138.228352,12.4 L140.838314,12.4 L140.838314,13.86 L138.248276,13.86 L138.248276,19.72 C138.248276,20.3466698 138.33461,20.7866654 138.50728,21.04 C138.67995,21.2933346 139.025285,21.42 139.543295,21.42 L140.34023,21.42 L140.34023,23 L139.463602,23 C138.467428,23 137.746873,22.7433359 137.301916,22.23 C136.856958,21.7166641 136.634483,20.9466718 136.634483,19.92 Z M143.547893,23 L143.547893,12.4 L145.181609,12.4 L145.181609,23 L143.547893,23 Z M143.428352,10.26 L143.428352,8.4 L145.301149,8.4 L145.301149,10.26 L143.428352,10.26 Z M151.756322,23 L147.49272,12.4 L149.166284,12.4 L152.39387,20.7 L152.433716,20.7 L155.661303,12.4 L157.334866,12.4 L153.071264,23 L151.756322,23 Z M166.838314,19.74 L168.153257,20.6 C167.754787,21.3733372 167.186977,22.0166641 166.449808,22.53 C165.71264,23.0433359 164.806136,23.3 163.730268,23.3 C162.295778,23.3 161.120311,22.7900051 160.203831,21.77 C159.287352,20.7499949 158.829119,19.3933418 158.829119,17.7 C158.829119,16.0066582 159.27739,14.6500051 160.173946,13.63 C161.070503,12.6099949 162.229367,12.1 163.650575,12.1 C165.0585,12.1 166.200762,12.599995 167.077395,13.6 C167.954027,14.600005 168.392337,15.966658 168.392337,17.7 L168.392337,18.18 L160.462835,18.18 C160.476118,19.1933384 160.758363,20.0533298 161.309579,20.76 C161.860795,21.4666702 162.654401,21.82 163.690421,21.82 C164.088891,21.82 164.46079,21.7633339 164.80613,21.65 C165.15147,21.5366661 165.417113,21.4233339 165.603065,21.31 C165.789018,21.1966661 165.984929,21.0100013 166.190805,20.75 C166.39668,20.4899987 166.522861,20.3200004 166.569349,20.24 C166.615837,20.1599996 166.705491,19.9933346 166.838314,19.74 Z M160.502682,16.88 L166.778544,16.88 C166.751979,15.9866622 166.486337,15.2133366 165.981609,14.56 C165.476881,13.9066634 164.699878,13.58 163.650575,13.58 C162.627837,13.58 161.850833,13.9299965 161.31954,14.63 C160.788248,15.3300035 160.515964,16.079996 160.502682,16.88 Z M170.484291,16.92 L170.484291,15.44 L177.03908,15.44 L177.03908,16.92 L170.484291,16.92 Z M179.828352,23 L179.828352,12.4 L181.302682,12.4 L181.302682,13.42 L181.342529,13.42 C181.594893,13.0333314 181.966792,12.7166679 182.458238,12.47 C182.949683,12.2233321 183.474327,12.1 184.032184,12.1 C184.6963,12.1 185.26411,12.2499985 185.735632,12.55 C186.207154,12.8500015 186.569092,13.2199978 186.821456,13.66 L186.861303,13.66 C187.113667,13.2333312 187.502169,12.8666682 188.02682,12.56 C188.551471,12.2533318 189.152487,12.1 189.829885,12.1 C190.945599,12.1 191.832181,12.4299967 192.489655,13.09 C193.14713,13.7500033 193.475862,14.646661 193.475862,15.78 L193.475862,23 L191.901916,23 L191.901916,16.28 C191.901916,14.4933244 191.184682,13.6 189.750192,13.6 C189.019664,13.6 188.451854,13.8233311 188.046743,14.27 C187.641633,14.7166689 187.43908,15.339996 187.43908,16.14 L187.43908,23 L185.865134,23 L185.865134,16.28 C185.865134,14.4933244 185.1479,13.6 183.71341,13.6 C182.943036,13.6 182.371905,13.8366643 182,14.31 C181.628095,14.7833357 181.442146,15.3933296 181.442146,16.14 L181.442146,23 L179.828352,23 Z M202.899617,23 L202.899617,21.84 L202.85977,21.84 C202.660535,22.1866684 202.281995,22.5166651 201.724138,22.83 C201.166281,23.1433349 200.46897,23.3 199.632184,23.3 C198.46334,23.3 197.576759,23.0133362 196.972414,22.44 C196.368068,21.8666638 196.0659,21.146671 196.0659,20.28 C196.0659,19.3999956 196.334863,18.7100025 196.872797,18.21 C197.410731,17.7099975 198.323876,17.293335 199.612261,16.96 C200.090424,16.8399994 200.44572,16.746667 200.678161,16.68 C200.910601,16.613333 201.179564,16.5233339 201.485057,16.41 C201.790551,16.2966661 202.009706,16.1866672 202.142529,16.08 C202.275352,15.9733328 202.39157,15.8400008 202.491188,15.68 C202.590805,15.5199992 202.640613,15.340001 202.640613,15.14 C202.640613,14.6866644 202.457984,14.3100015 202.09272,14.01 C201.727457,13.7099985 201.172928,13.56 200.429119,13.56 C199.021193,13.56 198.164497,14.259993 197.859004,15.66 L196.384674,15.24 C196.557344,14.306662 196.989013,13.5500029 197.679693,12.97 C198.370374,12.3899971 199.266917,12.1 200.369349,12.1 C201.591322,12.1 202.557595,12.4033303 203.268199,13.01 C203.978803,13.6166697 204.3341,14.5666602 204.3341,15.86 L204.3341,23 L202.899617,23 Z M199.990805,18.22 C199.087607,18.4733346 198.473309,18.7466652 198.147893,19.04 C197.822476,19.3333348 197.65977,19.713331 197.65977,20.18 C197.65977,21.2866722 198.357081,21.84 199.751724,21.84 C200.708051,21.84 201.445208,21.6233355 201.963218,21.19 C202.481229,20.7566645 202.74023,20.2266698 202.74023,19.6 L202.74023,16.96 L202.700383,16.96 C202.514431,17.3466686 201.611247,17.7666644 199.990805,18.22 Z M209.155556,16.16 L209.155556,19.52 C209.155556,20.1333364 209.414557,20.6699977 209.932567,21.13 C210.450577,21.5900023 211.09476,21.82 211.865134,21.82 C212.914437,21.82 213.721325,21.4600036 214.285824,20.74 C214.850322,20.0199964 215.132567,19.0066732 215.132567,17.7 C215.132567,16.4066602 214.847002,15.3966703 214.275862,14.67 C213.704723,13.9433297 212.901155,13.58 211.865134,13.58 C211.054913,13.58 210.400769,13.846664 209.902682,14.38 C209.404595,14.913336 209.155556,15.5066634 209.155556,16.16 Z M207.521839,27.5 L207.521839,12.4 L209.075862,12.4 L209.075862,13.42 L209.115709,13.42 C209.381355,13.086665 209.779819,12.7833347 210.311111,12.51 C210.842404,12.2366653 211.453381,12.1 212.144061,12.1 C213.45901,12.1 214.554785,12.6099949 215.431418,13.63 C216.30805,14.6500051 216.74636,16.0066582 216.74636,17.7 C216.74636,19.4066752 216.321332,20.7666616 215.471264,21.78 C214.621196,22.7933384 213.51214,23.3 212.144061,23.3 C211.493228,23.3 210.895533,23.1600014 210.350958,22.88 C209.806383,22.5999986 209.421202,22.3000016 209.195402,21.98 L209.155556,21.98 L209.155556,27.5 L207.521839,27.5 Z M218.838314,16.92 L218.838314,15.44 L225.393103,15.44 L225.393103,16.92 L218.838314,16.92 Z M228.182375,23 L228.182375,8.4 L229.836015,8.4 L229.836015,23 L228.182375,23 Z M233.342529,23 L233.342529,12.4 L234.976245,12.4 L234.976245,23 L233.342529,23 Z M233.222989,10.26 L233.222989,8.4 L235.095785,8.4 L235.095785,10.26 L233.222989,10.26 Z M238.482759,23 L238.482759,12.4 L240.076628,12.4 L240.076628,13.42 L240.116475,13.42 C240.408686,13.0333314 240.827073,12.7166679 241.371648,12.47 C241.916222,12.2233321 242.487353,12.1 243.085057,12.1 C244.227336,12.1 245.147123,12.4533298 245.844444,13.16 C246.541766,13.8666702 246.890421,14.8266606 246.890421,16.04 L246.890421,23 L245.276628,23 L245.276628,16.56 C245.276628,14.5866568 244.466419,13.6 242.845977,13.6 C242.022474,13.6 241.361688,13.833331 240.863602,14.3 C240.365515,14.766669 240.116475,15.4133292 240.116475,16.24 L240.116475,23 L238.482759,23 Z M250.177778,23 L250.177778,8.4 L251.811494,8.4 L251.811494,17.26 L251.851341,17.26 L256.294253,12.4 L258.4659,12.4 L254.600766,16.6 L258.944061,23 L257.051341,23 L253.425287,17.62 L253.385441,17.62 L251.811494,19.32 L251.811494,23 L250.177778,23 Z" id="react-native-map-lin" fill="#000000"></path>
        </g>
    </g>
</svg>